<svg xmlns="http://www.w3.org/2000/svg" id="Layer_1" viewBox="0 0 1920 673"><defs><style>.st0{fill:#fff}</style></defs><path d="M0 0h1920v673H0z" style="fill:#244d6a"/><path d="M24.7 19.9h40.9v11.5H24.7zm51.2 0h71.6v11.5H75.9zm81.9 0h61.4v11.5h-61.4zm71.6 0h40.9v11.5h-40.9zm-204.7 46h40.9v11.5H24.7zm51.2 0h10.2v11.5H75.9zm20.4 0h20.5v11.5H96.3zM24.7 112H127v11.5H24.7zm112.6 0h10.2v11.5h-10.2zm20.5 0h20.5v11.5h-20.5zM24.7 135h30.7v11.5H24.7zm40.9 0h10.2v11.5H65.6zm20.5 0h20.5v11.5H86.1zm30.7 0h81.9v11.5h-81.9zm-51.2 23.1h40.9v11.5H65.6zm51.2 0H127v11.5h-10.2zm20.5 0h20.5v11.5h-20.5zm-71.7 23h20.5v11.5H65.6zm30.7 0h61.4v11.5H96.3zm71.7 0h10.2v11.5H168zm20.4 0H301v11.5H188.4zm-81.8 23h102.3v11.5H106.6zm112.5 0h10.2v11.5h-10.2zm20.5 0H301v11.5h-61.4zm-174 23h30.7v11.5H65.6zm41 0H168v11.5h-61.4zm71.6 0h20.5v11.5h-20.5zm30.7 0h20.5v11.5h-20.5zm-102.3 23.1H127v11.5h-20.5zm30.7 0h61.4v11.5h-61.4zm71.6 0h20.5v11.5h-20.5zm30.7 0h143.3v11.5H239.6zm-92.1 23h143.3v11.5H147.5zm-40.9 23h51.2v11.5h-51.2zm40.9 23h143.3v11.5H147.5zm-81.9 23.1h174v11.5h-174zm-40.9 46h51.2v11.5H24.7zm61.4 0h10.2v11.5H86.1zm20.5 0h102.3v11.5H106.6zm112.5 0h10.2v11.5h-10.2zm20.5 0h122.8v11.5H239.6zm133 0h10.2v11.5h-10.2zm20.5 0h10.2v11.5h-10.2zm20.5 0h10.2v11.5h-10.2zm20.4 0h61.4v11.5H434zM24.7 434.4h30.7v11.5H24.7zm40.9 0h10.2v11.5H65.6zm20.5 0h20.5v11.5H86.1zm30.7 0h174v11.5h-174zm-51.2 23h20.5v11.5H65.6zm30.7 0h10.2v11.5H96.3zm20.5 0H127v11.5h-10.2zm-51.2 23h122.8v11.5H65.6zm133.1 0h10.2v11.5h-10.2zm20.4 0h10.2v11.5h-10.2zm-153.5 23h40.9V515H65.6zm51.2 0H127V515h-10.2zm20.5 0h51.2V515h-51.2zm-71.7 23.1h71.6V538H65.6zm81.9 0h10.2V538h-10.2zm20.5 0h10.2V538H168zm-143.3 46h61.4V584H24.7zm71.6 0h20.5V584H96.3zm30.8 0h501.5V584H127.1zM24.7 618.6h40.9v11.5H24.7zm51.2 0h184.2v11.5H75.9zm194.4 0h40.9v11.5h-40.9zm51.2 0H342v11.5h-20.5zm30.7 0h51.2v11.5h-51.2zm-286.6 23h184.2v11.5H65.6z" style="fill:#fff;isolation:isolate;opacity:.2"/><path d="M774.4 16h271.3v30.5H774.4zm298.4 0h27.1v30.5h-27.1zm54.3 0h162.8v30.5h-162.8zM665.9 77.1h81.4v30.5h-81.4zm108.5 0h162.8v30.5H774.4zm189.9 0h54.3v30.5h-54.3zm81.4 0h54.3v30.5h-54.3zm-271.3 61h54.3v30.5h-54.3zm81.4 0h162.8v30.5H855.8zm189.9 0h54.3v30.5h-54.3zm81.4 0h379.8v30.5h-379.8zm-244.2 61.1h379.8v30.5H883zm-108.5 61H910v30.5H774.4zm108.6 61h379.8v30.5H883zm-217.1 61.1h461.2v30.5H665.9zM557.4 504.4H693v30.5H557.4zm162.8 0h27.1v30.5h-27.1zm54.2 0h271.3v30.5H774.4zm298.4 0h27.1v30.5h-27.1zm54.3 0h325.5v30.5h-325.5zm352.7 0h27.1v30.5h-27.1zm54.2 0h27.1v30.5H1534zm54.3 0h27.1v30.5h-27.1zm54.2 0h162.8v30.5h-162.8zm-1085.1 122h81.4V657h-81.4zm108.5 0H693V657h-27.1zm54.3 0h54.3V657h-54.3zm81.4 0h461.2V657H801.6z" style="fill:#fff;opacity:.05;isolation:isolate"/><path d="M406 29.3h1109.1v168.8H406z" style="fill:none"/><path d="M647.62 365.26v-90.29h15.46v36.61h24.24v-36.61h15.46v90.29h-15.46v-39.71h-24.24v39.71zm94.25 1.24c-6.93 0-12.39-1.96-16.39-5.88s-6-9.05-6-15.4 2.27-11.85 6.8-15.77 10.76-5.88 18.68-5.88h16.57v-4.82c0-6.84-4-10.27-12-10.27-3.63 0-6.52.7-8.66 2.1-2.15 1.4-3.34 3.38-3.59 5.94h-14.84c.33-6.1 2.91-11.05 7.73-14.84s11.32-5.69 19.48-5.69q12.99 0 20.16 6.06t7.17 17.07v46.14h-15.09v-12.74c-.58 4.37-2.64 7.79-6.18 10.27-3.55 2.47-8.16 3.71-13.85 3.71Zm4.95-12.62c4.53 0 8.12-1.11 10.76-3.34q3.96-3.345 3.96-8.91v-8.04h-15.83c-3.38 0-6.06.95-8.04 2.84-1.98 1.9-2.97 4.33-2.97 7.3s1.05 5.5 3.15 7.36c2.1 1.85 5.09 2.78 8.97 2.78Zm51.7 11.38v-68.03h15.09v13.24c.82-4.45 2.86-7.98 6.12-10.58s7.48-3.9 12.68-3.9c6.93 0 12.33 2.23 16.2 6.68 3.88 4.45 5.81 10.68 5.81 18.68v6.43h-15.46v-5.69c0-4.12-1.07-7.28-3.22-9.46s-5.2-3.28-9.15-3.28-7.26 1.24-9.4 3.71c-2.15 2.47-3.22 5.98-3.22 10.51v41.68h-15.46Zm74.22 0v-68.03h15.09v13.24c.82-4.45 2.86-7.98 6.12-10.58s7.48-3.9 12.68-3.9c6.93 0 12.33 2.23 16.2 6.68 3.88 4.45 5.81 10.68 5.81 18.68v6.43h-15.46v-5.69c0-4.12-1.07-7.28-3.22-9.46s-5.2-3.28-9.15-3.28-7.26 1.24-9.4 3.71c-2.15 2.47-3.22 5.98-3.22 10.51v41.68h-15.46Zm71.61 0v-13.98h23.25V311.2h-20.78v-13.98h36.24v54.05h20.9v13.98h-59.62Zm29.93-79.41c-3.13 0-5.61-.8-7.42-2.41s-2.72-3.77-2.72-6.49.91-4.89 2.72-6.49c1.81-1.61 4.29-2.41 7.42-2.41s5.61.8 7.42 2.41 2.72 3.77 2.72 6.49-.91 4.89-2.72 6.49c-1.81 1.61-4.29 2.41-7.42 2.41m39.34 79.41 23.75-35.13-22.14-32.9h17.44l10.51 16.7c.66.99 1.28 2.1 1.86 3.34s.99 2.23 1.24 2.97c.33-.74.76-1.73 1.3-2.97s1.13-2.35 1.79-3.34l10.51-16.7h17.56l-22.14 32.9 23.62 35.13h-17.56l-11.75-18.68c-.66-.99-1.3-2.12-1.92-3.4s-1.09-2.29-1.42-3.03c-.33.74-.79 1.75-1.36 3.03a24 24 0 0 1-1.86 3.4l-11.88 18.68h-17.56Zm153.49 0v-90.29h30.06c6.02 0 11.28 1.16 15.77 3.46 4.49 2.31 7.98 5.55 10.45 9.71 2.47 4.17 3.71 9.05 3.71 14.66s-1.24 10.49-3.71 14.66-5.96 7.4-10.45 9.71c-4.5 2.31-9.75 3.46-15.77 3.46h-14.6v34.63zm15.47-48.24h14.6c4.37 0 7.83-1.32 10.39-3.96s3.83-6.06 3.83-10.27-1.28-7.63-3.83-10.27c-2.56-2.64-6.02-3.96-10.39-3.96h-14.6v28.45Zm69.63 70.5 9.65-25.98-25.6-64.32h16.33l13.11 34.76c.74 2.06 1.48 4.31 2.23 6.74.74 2.43 1.28 4.68 1.61 6.74.25-2.06.72-4.31 1.42-6.74s1.42-4.68 2.16-6.74l12.12-34.76h16.33l-33.15 90.29h-16.2Zm91.29-21.02c-6.1 0-11.44-1.07-16.02-3.22-4.58-2.14-8.12-5.21-10.64-9.21s-3.77-8.76-3.77-14.29h15.21c0 4.04 1.38 7.26 4.14 9.65s6.45 3.59 11.07 3.59 7.98-1.18 10.58-3.53 3.9-5.5 3.9-9.46c0-2.97-.85-5.58-2.54-7.85s-4.1-3.81-7.24-4.64l-12.12-3.09c-6.51-1.65-11.67-4.74-15.46-9.28-3.79-4.53-5.69-9.94-5.69-16.2 0-7.67 2.51-13.79 7.55-18.37q7.545-6.87 20.16-6.87 8.535 0 14.91 3.09c4.25 2.06 7.52 4.97 9.83 8.72s3.46 8.14 3.46 13.17h-15.09c0-3.46-1.2-6.27-3.59-8.41s-5.57-3.22-9.52-3.22-6.95 1.05-9.21 3.15c-2.27 2.1-3.4 4.85-3.4 8.23 0 2.8.8 5.11 2.41 6.93 1.61 1.81 3.85 3.13 6.74 3.96l12.49 3.09c6.68 1.65 11.94 4.95 15.77 9.9s5.75 10.84 5.75 17.69c0 5.36-1.22 10.02-3.65 13.98s-5.88 7.03-10.33 9.21-9.69 3.28-15.71 3.28Zm74.21 0c-6.1 0-11.44-1.07-16.02-3.22-4.58-2.14-8.12-5.21-10.64-9.21s-3.77-8.76-3.77-14.29h15.21c0 4.04 1.38 7.26 4.14 9.65s6.45 3.59 11.07 3.59 7.98-1.18 10.58-3.53 3.9-5.5 3.9-9.46c0-2.97-.85-5.58-2.54-7.85s-4.1-3.81-7.24-4.64l-12.12-3.09c-6.51-1.65-11.67-4.74-15.46-9.28-3.79-4.53-5.69-9.94-5.69-16.2 0-7.67 2.51-13.79 7.55-18.37q7.545-6.87 20.16-6.87 8.535 0 14.91 3.09c4.25 2.06 7.52 4.97 9.83 8.72s3.46 8.14 3.46 13.17h-15.09c0-3.46-1.2-6.27-3.59-8.41s-5.57-3.22-9.52-3.22-6.95 1.05-9.21 3.15c-2.27 2.1-3.4 4.85-3.4 8.23 0 2.8.8 5.11 2.41 6.93 1.61 1.81 3.85 3.13 6.74 3.96l12.49 3.09c6.68 1.65 11.94 4.95 15.77 9.9s5.75 10.84 5.75 17.69c0 5.36-1.22 10.02-3.65 13.98s-5.88 7.03-10.33 9.21-9.69 3.28-15.71 3.28Zm74.33 0c-5.86 0-10.93-1.09-15.21-3.28-4.29-2.18-7.61-5.28-9.96-9.28s-3.53-8.72-3.53-14.16v-39.33c0-5.44 1.18-10.16 3.53-14.16s5.67-7.09 9.96-9.28c4.29-2.18 9.36-3.28 15.21-3.28s10.8 1.09 15.09 3.28 7.63 5.28 10.02 9.28 3.59 8.72 3.59 14.16h-15.58c0-4.21-1.13-7.44-3.4-9.71s-5.5-3.4-9.71-3.4-7.46 1.11-9.77 3.34-3.46 5.44-3.46 9.65v39.46c0 4.21 1.15 7.46 3.46 9.77s5.57 3.46 9.77 3.46 7.44-1.15 9.71-3.46 3.4-5.57 3.4-9.77v-10.02h-15.34v-13.36h30.92v23.38c0 5.44-1.2 10.16-3.59 14.16s-5.73 7.09-10.02 9.28c-4.29 2.18-9.32 3.28-15.09 3.28Z" class="st0" style="isolation:isolate"/><path d="M563.8 318.8c7.5 30.6-5.2 62.7-31.4 79.9L508.1 343l-23.3 10.1 24.2 55.7c-30.5 7.5-62.6-5.2-79.9-31.4l-23.6 10.3c25.3 42.7 79 60.8 125.8 40.6 46.7-20.2 70-71.9 56.2-119.6zm-112.3-74.1c-46.6 20.3-70 72-56.2 119.6l23.6-10.3c-7.4-30.4 5.2-62.6 31.5-79.9l24.2 55.7 23.3-10.1-24.1-55.7c30.5-7.5 62.6 5.2 79.9 31.4l23.6-10.3c-25.4-42.5-79-60.6-125.8-40.4" class="st0"/></svg>